<?xml version="1.0" encoding="UTF-8"?>
<svg version="1.1" xmlns="http://www.w3.org/2000/svg" width="500" height="500">
<path d="M0 0 C16.36049134 -0.29596869 30.28672258 2.64988348 42.38671875 14.2421875 C61.25058464 34.5741663 69.66216673 59.49150079 69.76171875 87.1171875 C69.76703613 87.88313232 69.77235352 88.64907715 69.77783203 89.43823242 C69.75875419 93.02677508 69.55523272 96.21263079 68.8515625 99.75 C66.6504166 111.53337984 72.16101621 120.63647258 78.546875 130.30859375 C81.09213701 133.68904847 82.1557226 134.9449196 86.1328125 136.58203125 C89.76630153 136.48717285 93.02122863 135.86120671 96.57421875 135.1171875 C113.42605489 135.98983724 128.98673045 142.03739038 143.57421875 150.1171875 C144.97800781 150.89255859 144.97800781 150.89255859 146.41015625 151.68359375 C155.95774572 157.21035296 164.59339629 164.00772886 173.06640625 171.0390625 C174.81070723 172.48449571 176.59006949 173.88822102 178.39453125 175.2578125 C179.47347656 176.17820313 179.47347656 176.17820313 180.57421875 177.1171875 C180.57421875 177.7771875 180.57421875 178.4371875 180.57421875 179.1171875 C181.16589844 179.38273438 181.75757813 179.64828125 182.3671875 179.921875 C188.14739288 183.05239331 192.45133357 189.021114 196.68359375 193.94921875 C198.04461608 195.50989518 199.43367061 197.0462846 200.83984375 198.56640625 C210.11083359 208.58951281 214.94205278 216.62157934 214.88671875 230.5546875 C214.90283203 231.36228516 214.91894531 232.16988281 214.93554688 233.00195312 C214.94188201 240.86385385 213.20852645 247.01471696 207.69921875 252.8046875 C206.91804688 253.63355469 206.136875 254.46242188 205.33203125 255.31640625 C201.52604829 259.18168923 197.70405844 263.03113612 193.82861328 266.8269043 C190.82727431 269.68440783 190.82727431 269.68440783 188.57421875 273.1171875 C187.91421875 273.1171875 187.25421875 273.1171875 186.57421875 273.1171875 C186.24421875 274.1071875 185.91421875 275.0971875 185.57421875 276.1171875 C184.91421875 276.1171875 184.25421875 276.1171875 183.57421875 276.1171875 C183.28546875 276.7153125 182.99671875 277.3134375 182.69921875 277.9296875 C181.57421875 280.1171875 181.57421875 280.1171875 179.57421875 283.1171875 C181.16603613 285.6258678 182.77152293 288.12363068 184.38671875 290.6171875 C184.83853516 291.33261719 185.29035156 292.04804688 185.75585938 292.78515625 C186.19736328 293.46191406 186.63886719 294.13867188 187.09375 294.8359375 C187.49698486 295.46435547 187.90021973 296.09277344 188.31567383 296.74023438 C188.73099365 297.19462891 189.14631348 297.64902344 189.57421875 298.1171875 C192.68839029 298.1171875 194.63275489 297.35076027 197.45629883 296.13525391 C219.94438866 286.45971557 246.13194377 285.7461051 269.0949707 294.47583008 C292.73293442 303.9273913 310.88157019 321.17056761 321.11206055 344.60864258 C330.61022078 367.70297166 330.02732324 392.42192627 320.82421875 415.4296875 C309.88821737 439.26037708 290.43047654 456.16632904 266.12109375 465.43359375 C241.24643477 473.57493745 214.66271025 471.84133414 191.31542969 460.03173828 C182.67652298 455.49425307 175.59922022 449.85299508 168.57421875 443.1171875 C167.93613281 442.53066406 167.29804688 441.94414062 166.640625 441.33984375 C159.68052501 434.75177583 154.4700057 426.84375027 150.57421875 418.1171875 C150.57421875 417.4571875 150.57421875 416.7971875 150.57421875 416.1171875 C147.84036788 417.02143806 145.1127639 417.93993093 142.38671875 418.8671875 C141.61779297 419.11984375 140.84886719 419.3725 140.05664062 419.6328125 C135.50452131 421.19577192 132.22301701 422.87455109 128.57421875 426.1171875 C121.4732007 430.02999337 114.38533682 431.50858197 106.35546875 429.5859375 C97.85134095 426.57678459 92.97770751 421.90576859 88.57421875 414.1171875 C87.47915383 410.83199275 87.47461267 408.38055335 87.51171875 404.9296875 C87.52074219 403.84300781 87.52976563 402.75632812 87.5390625 401.63671875 C87.55646484 400.38955078 87.55646484 400.38955078 87.57421875 399.1171875 C86.58421875 399.7771875 85.59421875 400.4371875 84.57421875 401.1171875 C82.10365052 401.28830752 79.74917954 401.34971874 77.28125 401.3125 C76.22220711 401.30825516 76.22220711 401.30825516 75.14176941 401.30392456 C72.88991242 401.29274214 70.63845523 401.2676417 68.38671875 401.2421875 C66.85872971 401.23215517 65.33073442 401.22302976 63.80273438 401.21484375 C60.05974212 401.19280922 56.31704819 401.15829317 52.57421875 401.1171875 C52.57421875 397.4871875 52.57421875 393.8571875 52.57421875 390.1171875 C53.89421875 390.1171875 55.21421875 390.1171875 56.57421875 390.1171875 C56.61546875 389.1271875 56.65671875 388.1371875 56.69921875 387.1171875 C57.51466917 381.53361729 60.92852505 377.10145777 65.38671875 373.7578125 C68.30345252 372.02285879 71.21034929 370.65540661 74.57421875 370.1171875 C74.92050953 366.93564097 74.88399775 365.53873761 72.95703125 362.91650391 C72.21195313 362.19124512 71.466875 361.46598633 70.69921875 360.71875 C69.87808594 359.90921875 69.05695313 359.0996875 68.2109375 358.265625 C67.34082031 357.43289063 66.47070312 356.60015625 65.57421875 355.7421875 C64.73503906 354.9171875 63.89585937 354.0921875 63.03125 353.2421875 C59.3743019 349.67028471 55.6856514 346.17330431 51.79296875 342.859375 C44.90825699 336.91992863 38.66239731 330.25763173 32.27392578 323.79638672 C23.4522405 314.86122728 23.4522405 314.86122728 14.13476562 306.45068359 C12.18505365 304.78464373 10.36833662 303.01118282 8.57421875 301.1796875 C7.99671875 300.59316406 7.41921875 300.00664062 6.82421875 299.40234375 C6.41171875 298.97824219 5.99921875 298.55414063 5.57421875 298.1171875 C4.58421875 300.0971875 3.59421875 302.0771875 2.57421875 304.1171875 C3.15429688 304.56449219 3.734375 305.01179688 4.33203125 305.47265625 C5.96090767 306.73328833 7.58568733 307.99922596 9.20703125 309.26953125 C10.98138803 310.65446649 12.77352775 312.01666925 14.57421875 313.3671875 C29.01608777 325.69463923 39.8366685 346.81899799 42.328125 365.671875 C44.10415098 390.53623877 40.47523713 415.64073079 23.9296875 435.38671875 C6.6156846 455.06422046 -15.06326323 467.7357873 -41.42578125 470.1171875 C-69.02057037 471.5535529 -93.70679718 463.70681432 -114.42578125 445.1171875 C-115.08191406 444.53195312 -115.73804687 443.94671875 -116.4140625 443.34375 C-131.50341991 429.09083147 -141.5580218 406.74902774 -142.51904297 386.11474609 C-142.84905166 374.14988547 -142.86988506 362.37682867 -138.42578125 351.1171875 C-137.93464844 349.78107422 -137.93464844 349.78107422 -137.43359375 348.41796875 C-135.09274676 342.372126 -132.23900225 336.79803555 -128.92578125 331.2421875 C-128.5582373 330.6239209 -128.19069336 330.0056543 -127.81201172 329.36865234 C-125.32604417 325.30519942 -122.65006184 321.63165335 -119.42578125 318.1171875 C-118.76578125 318.1171875 -118.10578125 318.1171875 -117.42578125 318.1171875 C-117.42578125 317.4571875 -117.42578125 316.7971875 -117.42578125 316.1171875 C-116.76578125 316.1171875 -116.10578125 316.1171875 -115.42578125 316.1171875 C-115.09578125 315.1271875 -114.76578125 314.1371875 -114.42578125 313.1171875 C-93.84291752 294.08902284 -68.02524823 288.16795794 -40.70996094 288.92480469 C-30.31011909 289.53401338 -20.15684613 292.5130894 -10.42578125 296.1171875 C-9.08985328 293.8061514 -7.75693694 291.49346995 -6.42578125 289.1796875 C-5.8534375 288.1906543 -5.8534375 288.1906543 -5.26953125 287.18164062 C-3.30069078 284.31950248 -3.30069078 284.31950248 -2.42578125 281.1171875 C-3.47765625 281.4471875 -4.52953125 281.7771875 -5.61328125 282.1171875 C-13.78792478 284.12091895 -22.37953875 284.53655277 -29.83984375 280.28515625 C-31.42578125 279.1171875 -31.42578125 279.1171875 -32.89453125 277.56640625 C-34.65477383 275.90046238 -35.99540202 275.43290423 -38.30078125 274.7421875 C-43.76635337 272.79019746 -46.82253754 269.47517384 -49.67578125 264.4921875 C-52.82937268 257.68504503 -53.3570643 249.55033944 -51.3984375 242.3125 C-48.05224649 234.76005281 -42.0381149 230.32963662 -34.625 227.1875 C-32.36626777 226.08822357 -31.17138212 224.88191824 -29.42578125 223.1171875 C-22.14286035 220.64619648 -14.20293859 219.63330426 -6.92578125 222.4921875 C-5.08479493 223.68882861 -3.25272963 224.89922191 -1.42578125 226.1171875 C0.80466533 225.55625757 0.80466533 225.55625757 3.13671875 224.34375 C4.45542969 223.725 4.45542969 223.725 5.80078125 223.09375 C6.71601563 222.64773437 7.63125 222.20171875 8.57421875 221.7421875 C10.38439637 220.87534188 12.19680865 220.01314304 14.01171875 219.15625 C14.81480469 218.76646973 15.61789063 218.37668945 16.4453125 217.97509766 C18.57421875 217.1171875 18.57421875 217.1171875 21.57421875 217.1171875 C21.75984375 215.8590625 21.94546875 214.6009375 22.13671875 213.3046875 C24.39173023 202.0296301 28.78078929 190.67395631 34.6953125 180.8359375 C36.07938159 178.12931349 36.12288711 176.06627993 35.57421875 173.1171875 C34.61269492 171.75584636 33.6167291 170.41755281 32.57421875 169.1171875 C31.89617187 169.76945313 31.218125 170.42171875 30.51953125 171.09375 C20.74041072 180.27691305 11.27188548 187.74868863 -2.74609375 187.42578125 C-7.55511041 186.87197321 -10.75697348 185.05971506 -13.90234375 181.3984375 C-14.87516609 180.1707045 -15.84782274 178.9428402 -16.8203125 177.71484375 C-19.12000371 175.42634325 -21.55534514 174.79935064 -24.6015625 173.859375 C-27.45737672 172.69748056 -28.7393245 170.61564195 -30.42578125 168.1171875 C-31.84244792 166.53385417 -31.84244792 166.53385417 -33.42578125 165.1171875 C-34.1321875 164.4365625 -34.83859375 163.7559375 -35.56640625 163.0546875 C-39.17565236 160.60907812 -41.41450476 160.68410402 -45.73828125 160.6796875 C-51.93708687 160.50262182 -56.93909597 159.7027529 -61.42578125 155.1171875 C-64.39230318 150.4709462 -63.91194515 145.43680698 -63.42578125 140.1171875 C-62.78000306 137.507945 -62.00712183 135.02649121 -61.08203125 132.50390625 C-59.42019066 126.45995029 -60.9418663 122.3658692 -63.73828125 116.9921875 C-67.76624927 108.80817135 -70.22233517 100.89271564 -70.86328125 91.7421875 C-71.2098623 87.20775214 -72.76116073 84.83150701 -75.42578125 81.1171875 C-79.63392458 68.91357184 -77.50795328 56.76703974 -72.42578125 45.1796875 C-61.19599679 23.93414933 -37.0616481 8.94715504 -14.81640625 2.0859375 C-9.7022455 0.62474871 -5.29537767 0.18114177 0 0 Z M-51.05664062 69.71875 C-58.64284331 76.84984383 -58.64284331 76.84984383 -61.73828125 86.2421875 C-61.58603744 96.82313203 -58.38796954 106.61001278 -53.61328125 115.9296875 C-49.27013143 124.54447656 -50.26016033 130.55430256 -53.05078125 139.4921875 C-53.33179687 140.26304687 -53.6128125 141.03390625 -53.90234375 141.828125 C-54.53472469 144.59361178 -54.23589346 146.41527915 -53.42578125 149.1171875 C-50.12993333 151.77921851 -46.4945327 151.40271392 -42.42578125 151.1171875 C-40.75645067 150.4572196 -39.08932915 149.79159881 -37.42578125 149.1171875 C-35.36328125 149.1171875 -35.36328125 149.1171875 -33.42578125 150.1171875 C-31.17578125 153.1796875 -31.17578125 153.1796875 -29.42578125 156.1171875 C-25.22802004 154.69769139 -22.36356177 152.6533285 -18.98828125 149.8046875 C-18.034375 149.00546875 -17.08046875 148.20625 -16.09765625 147.3828125 C-15.2159375 146.63515625 -14.33421875 145.8875 -13.42578125 145.1171875 C-12.19755236 144.09522606 -10.96861846 143.07410976 -9.73828125 142.0546875 C-8.97515625 141.4153125 -8.21203125 140.7759375 -7.42578125 140.1171875 C-12.07432156 154.24459491 -12.07432156 154.24459491 -16.42578125 159.1171875 C-19.23828125 160.1171875 -19.23828125 160.1171875 -21.42578125 160.1171875 C-21.09578125 161.7671875 -20.76578125 163.4171875 -20.42578125 165.1171875 C-17.66313836 165.71451569 -15.26545356 166.1171875 -12.42578125 166.1171875 C-11.14453125 167.76171875 -11.14453125 167.76171875 -9.92578125 169.9296875 C-7.58325809 174.05162729 -5.98601534 176.60772331 -1.36328125 178.1171875 C4.19682047 178.1171875 7.86494924 175.90099213 12.57421875 173.1171875 C13.22519531 172.735625 13.87617188 172.3540625 14.546875 171.9609375 C16.36357366 170.86299327 16.36357366 170.86299327 18.57421875 169.1171875 C18.57421875 168.4571875 18.57421875 167.7971875 18.57421875 167.1171875 C19.16589844 166.85164063 19.75757813 166.58609375 20.3671875 166.3125 C29.11520291 161.57463679 38.7625685 149.63198686 42.6953125 140.51953125 C43.84829649 136.05620212 43.86534945 131.89418832 43.82421875 127.3046875 C43.83195312 126.45326172 43.8396875 125.60183594 43.84765625 124.72460938 C43.83215507 119.63634755 43.29841201 115.04249324 42.00292969 110.1184082 C41.57421875 108.1171875 41.57421875 108.1171875 41.57421875 104.1171875 C43.56752717 102.77387096 45.56806741 101.44124738 47.57421875 100.1171875 C51.57042418 92.4311524 50.15369852 83.18612782 47.82421875 75.1796875 C44.9979159 66.93878341 41.03569116 60.59578328 33.19921875 56.2421875 C28.99603404 54.93775086 26.79250567 54.89004949 22.57421875 56.1171875 C17.50796156 59.19667717 15.27194361 62.5991302 13.2578125 68.1484375 C11.78910088 74.52684225 11.49140664 81.86875117 13.57421875 88.1171875 C11.01171875 88.6171875 11.01171875 88.6171875 7.57421875 88.1171875 C1.33008667 83.61249221 -1.69134174 75.94245136 -5.08251953 69.28320312 C-8.46812084 62.75764806 -11.74834394 57.77563962 -18.61328125 54.6796875 C-31.29705638 52.14293247 -42.52271508 61.33812851 -51.05664062 69.71875 Z M52.57421875 115.1171875 C52.70699219 115.66246094 52.83976563 116.20773438 52.9765625 116.76953125 C53.15316406 117.52363281 53.32976562 118.27773437 53.51171875 119.0546875 C53.68574219 119.78558594 53.85976562 120.51648438 54.0390625 121.26953125 C55.4746364 128.90846096 55.70689798 136.42218348 55.63671875 144.1796875 C55.63220703 145.14068359 55.62769531 146.10167969 55.62304688 147.09179688 C55.61139581 149.43366172 55.595039 151.77538931 55.57421875 154.1171875 C60.81124122 150.19425394 60.81124122 150.19425394 66.03515625 146.25390625 C66.66679687 145.77566406 67.2984375 145.29742187 67.94921875 144.8046875 C68.59632813 144.31355469 69.2434375 143.82242188 69.91015625 143.31640625 C71.57421875 142.1171875 71.57421875 142.1171875 73.57421875 141.1171875 C72.04570653 135.66317798 69.46503917 131.18246837 66.57421875 126.3671875 C66.12304688 125.60019531 65.671875 124.83320313 65.20703125 124.04296875 C62.72873658 119.82540209 62.72873658 119.82540209 59.57421875 116.1171875 C57.25146698 115.71671306 54.91682518 115.3774771 52.57421875 115.1171875 Z M48.88525391 176.45019531 C47.56702004 178.12634072 46.19465022 179.74248977 44.8046875 181.359375 C41.40443712 185.56353746 41.33714083 189.33950992 41.07421875 194.53125 C41.03361328 195.26032562 40.99300781 195.98940125 40.95117188 196.74057007 C40.8216148 199.07424799 40.69749263 201.40816987 40.57421875 203.7421875 C39.58381686 222.23871653 39.58381686 222.23871653 38.57421875 230.1171875 C37.79183838 230.40964355 37.00945801 230.70209961 36.20336914 231.00341797 C33.30700248 232.08990563 30.4131085 233.18267131 27.52075195 234.27978516 C25.65044595 234.98699689 23.77737672 235.68688672 21.90429688 236.38671875 C20.73447266 236.83144531 19.56464844 237.27617187 18.359375 237.734375 C17.275354 238.14284668 16.19133301 238.55131836 15.07446289 238.97216797 C12.44035285 239.86242174 12.44035285 239.86242174 11.57421875 242.1171875 C12.14437936 244.34625764 12.80347539 246.55307166 13.51171875 248.7421875 C13.89199219 249.93070312 14.27226562 251.11921875 14.6640625 252.34375 C14.96441406 253.25898438 15.26476562 254.17421875 15.57421875 255.1171875 C22.2567178 252.82808698 28.92261496 250.4945947 35.57421875 248.1171875 C36.3513623 247.84003906 37.12850586 247.56289063 37.92919922 247.27734375 C39.985111 246.53427651 42.03067728 245.768531 44.07421875 244.9921875 C45.23953125 244.55648437 46.40484375 244.12078125 47.60546875 243.671875 C51.94614371 241.39873206 54.03527811 238.73400941 55.57421875 234.1171875 C55.7152156 232.63009135 55.80862997 231.13820054 55.87133789 229.64575195 C55.91130386 228.74504471 55.95126984 227.84433746 55.9924469 226.91633606 C56.05032631 225.46308174 56.05032631 225.46308174 56.109375 223.98046875 C56.15235214 222.98589157 56.19532928 221.99131439 56.23960876 220.96659851 C56.37603549 217.7877856 56.50644667 214.60875801 56.63671875 211.4296875 C56.72811976 209.27537379 56.81991177 207.12107664 56.91210938 204.96679688 C57.13735107 199.68377747 57.35765344 194.40056929 57.57421875 189.1171875 C63.81629316 194.14849337 69.94889764 199.21914756 75.76171875 204.7421875 C76.96281325 205.86926634 78.16462944 206.99557661 79.3671875 208.12109375 C79.92583496 208.64461426 80.48448242 209.16813477 81.06005859 209.70751953 C84.16054833 212.59404448 87.35551513 215.36404637 90.57421875 218.1171875 C92.28600861 219.58451237 93.99750797 221.05216741 95.70800781 222.52099609 C96.94550817 223.5794442 98.18701957 224.63322182 99.43261719 225.68212891 C102.04656352 227.89138511 104.53345262 230.07457458 106.90234375 232.55078125 C108.75519179 234.48271427 110.22275061 235.85031564 112.57421875 237.1171875 C114.7200402 236.96512647 114.7200402 236.96512647 116.94921875 236.10546875 C117.83512695 235.80584229 118.72103516 235.50621582 119.63378906 235.19750977 C125.22075228 233.14484352 130.78332108 231.04113836 136.32421875 228.8671875 C137.65186255 228.34893072 138.97958263 227.83086931 140.30737305 227.31298828 C143.17324613 226.19405895 146.0378971 225.07206277 148.90185547 223.94824219 C153.04279498 222.32390733 157.18743664 220.70919464 161.33261108 219.09570312 C164.82881653 217.73348141 168.32304271 216.36623783 171.81677246 214.99768066 C173.52763448 214.32830478 175.2391414 213.66057484 176.95129395 212.99450684 C179.35495877 212.05867532 181.75588976 211.11614451 184.15625 210.171875 C184.87877457 209.89215851 185.60129913 209.61244202 186.34571838 209.32424927 C189.22940542 208.18308104 191.35681902 207.33458723 193.57421875 205.1171875 C192.21098132 203.0772156 192.21098132 203.0772156 190.57421875 201.1171875 C189.91421875 201.1171875 189.25421875 201.1171875 188.57421875 201.1171875 C188.30343506 200.52188232 188.03265137 199.92657715 187.75366211 199.31323242 C186.58816362 197.14315191 185.43228909 195.71734126 183.703125 193.98046875 C183.13432617 193.4076416 182.56552734 192.83481445 181.97949219 192.24462891 C181.37137695 191.64569824 180.76326172 191.04676758 180.13671875 190.4296875 C179.50926758 189.80755371 178.88181641 189.18541992 178.23535156 188.54443359 C172.94535932 183.36056359 167.40784197 178.68301723 161.57421875 174.1171875 C160.76726562 173.44300781 159.9603125 172.76882812 159.12890625 172.07421875 C141.00009177 157.00573469 119.14988479 146.43975649 95.57421875 144.1171875 C94.75308594 144.03339844 93.93195313 143.94960937 93.0859375 143.86328125 C73.90689568 142.83642409 59.31063622 162.83895376 48.88525391 176.45019531 Z M65.57421875 208.1171875 C63.96951034 209.72189591 64.37127488 211.49004242 64.29296875 213.7109375 C64.25558594 214.6596875 64.21820313 215.6084375 64.1796875 216.5859375 C64.14488281 217.58625 64.11007813 218.5865625 64.07421875 219.6171875 C63.27395872 241.9059112 63.27395872 241.9059112 58.57421875 247.1171875 C51.74486182 250.9793622 44.39862514 253.59840091 37.07421875 256.3671875 C35.26824219 257.05554688 35.26824219 257.05554688 33.42578125 257.7578125 C30.47664074 258.8812946 27.52611738 260.00097691 24.57421875 261.1171875 C24.57421875 261.4471875 24.57421875 261.7771875 24.57421875 262.1171875 C33.69295448 262.32624632 42.8108586 262.48589293 51.93147278 262.58349705 C56.16725643 262.63035739 60.40139415 262.69384789 64.63623047 262.79614258 C68.72774262 262.89435018 72.81767806 262.94782898 76.91027832 262.97108269 C78.46692726 262.98763996 80.02349527 263.01997637 81.57946777 263.06875801 C90.38046373 263.51173977 90.38046373 263.51173977 98.25634766 260.17892456 C100.28421802 257.92080018 101.93552353 255.66614606 103.57421875 253.1171875 C104.55788655 251.91612385 105.55580824 250.72643674 106.57421875 249.5546875 C107.23421875 248.7503125 107.89421875 247.9459375 108.57421875 247.1171875 C106.99784376 242.78727439 103.64685333 240.38480098 100.19921875 237.5546875 C98.92691371 236.48873331 97.6561075 235.42098788 96.38671875 234.3515625 C95.74734375 233.81337891 95.10796875 233.27519531 94.44921875 232.72070312 C91.63681515 230.31551213 88.91349987 227.81947313 86.19921875 225.3046875 C79.5607249 219.17592933 73.02909309 213.24241361 65.57421875 208.1171875 Z M30.57421875 216.1171875 C29.91421875 218.7571875 29.25421875 221.3971875 28.57421875 224.1171875 C29.56421875 224.1171875 30.55421875 224.1171875 31.57421875 224.1171875 C31.57421875 221.4771875 31.57421875 218.8371875 31.57421875 216.1171875 C31.24421875 216.1171875 30.91421875 216.1171875 30.57421875 216.1171875 Z M-21.42578125 230.1171875 C-25.48602446 232.15520885 -25.48602446 232.15520885 -27.42578125 236.1171875 C-28.29203125 236.1996875 -29.15828125 236.2821875 -30.05078125 236.3671875 C-34.73743985 237.40866719 -37.86331313 239.55471938 -41.23828125 242.9296875 C-42.86020183 245.91743593 -43.10321346 248.76248251 -43.42578125 252.1171875 C-39.55551722 248.82334577 -35.71853276 245.50008765 -31.92578125 242.1171875 C-28.13302974 238.73428735 -24.29604528 235.41102923 -20.42578125 232.1171875 C-20.75578125 231.4571875 -21.08578125 230.7971875 -21.42578125 230.1171875 Z M-14.42578125 238.1171875 C-15.80446406 239.74653991 -17.13852218 241.41468357 -18.42578125 243.1171875 C-20.078125 244.15234375 -20.078125 244.15234375 -21.92578125 245.1171875 C-25.94708474 247.24002153 -28.38589276 250.03741051 -30.42578125 254.1171875 C-31.24606219 260.59875167 -30.23110334 265.76713071 -26.42578125 271.1171875 C-22.87268368 274.46127933 -19.15725539 274.67746312 -14.45703125 274.54296875 C-8.01000124 273.63739366 3.29854829 271.32748945 7.57421875 266.1171875 C8.75801052 259.58559479 6.84568961 253.40378618 4.82421875 247.2421875 C4.5715625 246.40171875 4.31890625 245.56125 4.05859375 244.6953125 C2.95643608 241.24555898 2.12805877 238.70425792 -0.37890625 236.046875 C-5.20096724 233.85670226 -10.0197542 235.80883237 -14.42578125 238.1171875 Z M-43.42578125 253.1171875 C-42.43578125 256.0871875 -41.44578125 259.0571875 -40.42578125 262.1171875 C-40.09578125 262.1171875 -39.76578125 262.1171875 -39.42578125 262.1171875 C-39.09180338 259.24305625 -39.09180338 259.24305625 -39.42578125 256.1171875 C-41.30655998 254.20462038 -41.30655998 254.20462038 -43.42578125 253.1171875 Z M14.49658203 278.92822266 C13.0690143 281.47943005 13.0690143 281.47943005 12.57421875 284.1171875 C14.00659134 288.42108026 17.45331085 291.26609701 20.61328125 294.38671875 C21.21296722 294.9859465 21.8126532 295.58517426 22.43051147 296.20256042 C23.70082166 297.46985287 24.97355805 298.73471733 26.24853516 299.99731445 C28.17660465 301.90728568 30.09670907 303.82497786 32.015625 305.74414062 C37.40207195 311.11452789 42.78371915 316.40863395 48.58007812 321.33911133 C53.26560263 325.51696086 57.60439209 330.08667973 62.01171875 334.5546875 C63.98673686 336.55622863 65.9650183 338.55446177 67.9453125 340.55078125 C68.8108374 341.42790771 69.6763623 342.30503418 70.56811523 343.20874023 C72.23349457 345.23206286 72.23349457 345.23206286 73.57421875 345.1171875 C73.49047106 343.40697149 73.40568639 341.69680323 73.31738281 339.98681641 C73.23674063 338.36964065 73.16349174 336.75208349 73.09667969 335.13427734 C72.86875299 330.14950247 72.49630746 325.2172162 71.91619873 320.25975037 C68.90885422 294.33829595 68.90885422 294.33829595 74.17480469 287.50341797 C76.46684782 285.13722481 78.96665071 283.12437543 81.57421875 281.1171875 C84.61666866 278.0446056 84.61666866 278.0446056 85.57421875 274.1171875 C76.94258249 273.88515144 68.31202402 273.70764683 59.67794609 273.59906578 C55.66828916 273.54694099 51.66076999 273.47629977 47.65234375 273.36279297 C43.78124269 273.25386502 39.91219219 273.19429584 36.03967667 273.16841507 C34.56503118 273.14998254 33.0904942 273.11398079 31.61672592 273.05988693 C21.61806018 272.58794069 21.61806018 272.58794069 14.49658203 278.92822266 Z M169.57421875 297.1171875 C165.78920834 303.17320416 166.62300915 306.88958929 168.13671875 313.6171875 C168.28109375 314.1121875 168.42546875 314.6071875 168.57421875 315.1171875 C169.23421875 315.1171875 169.89421875 315.1171875 170.57421875 315.1171875 C170.57421875 314.4571875 170.57421875 313.7971875 170.57421875 313.1171875 C171.15171875 312.8696875 171.72921875 312.6221875 172.32421875 312.3671875 C174.87530937 310.94991493 176.55394982 309.20536463 178.57421875 307.1171875 C177.45743792 305.4450023 176.33055523 303.77955947 175.19921875 302.1171875 C174.57273437 301.1890625 173.94625 300.2609375 173.30078125 299.3046875 C172.73101562 298.5828125 172.16125 297.8609375 171.57421875 297.1171875 C170.91421875 297.1171875 170.25421875 297.1171875 169.57421875 297.1171875 Z M119.57421875 304.1171875 C117.16642544 306.64623452 115.70252125 308.33416073 115.13085938 311.82299805 C115.16373047 312.81082275 115.19660156 313.79864746 115.23046875 314.81640625 C115.2665625 315.95899902 115.30265625 317.1015918 115.33984375 318.27880859 C115.78138982 325.51004544 116.39143084 332.71764475 117.07421875 339.9296875 C117.2192883 341.50841417 117.36382283 343.0871901 117.5078125 344.66601562 C117.85713441 348.48366717 118.21362508 352.30058482 118.57421875 356.1171875 C121.24453219 352.11171734 122.92587403 347.86711321 124.76171875 343.4296875 C125.14263672 342.55634766 125.52355469 341.68300781 125.91601562 340.78320312 C129.99167646 330.87882952 127.39598967 323.83440104 124.01171875 314.1171875 C123.68236328 313.15167969 123.35300781 312.18617188 123.01367188 311.19140625 C122.20735673 308.83088944 121.39409712 306.47302033 120.57421875 304.1171875 C120.24421875 304.1171875 119.91421875 304.1171875 119.57421875 304.1171875 Z M-97.42578125 322.1171875 C-98.25464844 322.77203125 -99.08351563 323.426875 -99.9375 324.1015625 C-114.30931823 336.16244518 -123.17169805 353.5658833 -125.42578125 372.1171875 C-126.73979216 390.68566947 -122.16815181 409.38419893 -110.26171875 424.0625 C-98.82011798 436.86735533 -87.07935101 445.80267622 -70.42578125 451.1171875 C-69.65492187 451.36339844 -68.8840625 451.60960937 -68.08984375 451.86328125 C-48.18710108 456.92625965 -26.78224714 452.33940054 -9.42578125 442.1171875 C-4.23649291 438.87758252 -4.23649291 438.87758252 0.57421875 435.1171875 C0.57421875 434.4571875 0.57421875 433.7971875 0.57421875 433.1171875 C1.53328125 432.715 1.53328125 432.715 2.51171875 432.3046875 C4.90553561 431.23050998 4.90553561 431.23050998 5.57421875 428.1171875 C6.56421875 427.7871875 7.55421875 427.4571875 8.57421875 427.1171875 C22.42209639 410.81625725 27.24771613 391.15360602 25.57421875 370.1171875 C22.92462686 349.91124735 11.66466645 333.53385658 -3.47265625 320.33203125 C-4.43945312 319.73068359 -4.43945312 319.73068359 -5.42578125 319.1171875 C-9.39441582 320.44006569 -9.77627399 321.98773575 -11.796875 325.6015625 C-12.27481255 326.4469735 -12.27481255 326.4469735 -12.7624054 327.3094635 C-13.80459695 329.15736707 -14.83385029 331.01215007 -15.86328125 332.8671875 C-16.57947489 334.14204239 -17.29660389 335.41637224 -18.01464844 336.69018555 C-19.46487026 339.26498058 -20.91067199 341.84217729 -22.35302734 344.42138672 C-25.25856682 349.61103806 -28.21719102 354.77015461 -31.17578125 359.9296875 C-32.52968651 362.29804826 -33.88311709 364.66661733 -35.23071289 367.03857422 C-36.01211798 368.39769228 -36.80769418 369.74878568 -37.61889648 371.09033203 C-39.49138156 374.21515841 -40.87623716 376.69214126 -40.98828125 380.3671875 C-41.42578125 384.1171875 -41.42578125 384.1171875 -42.48828125 386.0546875 C-45.65621045 387.791939 -48.87144442 388.20743433 -52.42578125 388.1171875 C-55.30078125 387.1796875 -55.30078125 387.1796875 -57.42578125 385.1171875 C-59.10644982 381.39398392 -59.64871972 378.2566508 -58.86328125 374.2421875 C-57.42578125 372.1171875 -57.42578125 372.1171875 -55.05078125 371.29296875 C-51.73484333 369.80770489 -50.84014068 368.2750017 -48.98828125 365.1796875 C-48.18583984 363.86677734 -48.18583984 363.86677734 -47.3671875 362.52734375 C-45.21992725 358.75559687 -43.14507511 354.94848356 -41.07397461 351.13452148 C-37.65169052 344.86937423 -34.13406451 338.65703653 -30.63671875 332.43359375 C-26.85091498 325.68752491 -23.11302113 318.91764641 -19.42578125 312.1171875 C-44.36073838 298.96966465 -76.05389531 304.7866633 -97.42578125 322.1171875 Z M200.57421875 313.1171875 C200.57421875 316.46487719 201.06077439 317.22813925 202.85546875 319.94140625 C203.36045898 320.71186279 203.86544922 321.48231934 204.38574219 322.27612305 C204.94293945 323.11054932 205.50013672 323.94497559 206.07421875 324.8046875 C206.64430664 325.66940674 207.21439453 326.53412598 207.80175781 327.42504883 C209.71860868 330.3273339 211.64617005 333.22233094 213.57421875 336.1171875 C214.6672369 337.76606097 215.76024797 339.4149392 216.8527832 341.06413269 C220.03894226 345.87191904 223.23151207 350.67546059 226.43359375 355.47265625 C227.01592773 356.34559326 227.59826172 357.21853027 228.19824219 358.11791992 C229.42182248 360.02532293 229.42182248 360.02532293 230.57421875 361.1171875 C232.61400208 361.36255274 234.65616011 361.58828152 236.69921875 361.8046875 C242.81740518 362.69790242 246.73803979 364.18327118 250.57421875 369.1171875 C253.66567047 374.00502333 253.05246431 379.54263774 252.57421875 385.1171875 C250.95503341 389.88952325 248.78379255 392.37606967 244.57421875 395.1171875 C239.30964209 397.45699935 233.9315902 398.24648517 228.42578125 396.39453125 C222.70900115 393.76991288 219.61420125 390.74190524 217.26171875 384.8046875 C216.28217978 379.55079666 216.54154502 375.18253497 218.94921875 370.3671875 C219.65686122 366.68744665 219.44801064 366.31513558 217.49609375 363.33984375 C216.45845131 361.93836141 215.39969989 360.55234728 214.32421875 359.1796875 C213.19607479 357.66673625 212.06980391 356.1523867 210.9453125 354.63671875 C210.37538574 353.87955566 209.80545898 353.12239258 209.21826172 352.34228516 C206.81935484 349.09553177 204.59727954 345.74376812 202.38671875 342.3671875 C197.88327642 335.54566322 193.25333489 328.81939975 188.57421875 322.1171875 C185.31070474 323.97081852 182.5504119 325.84645183 179.88671875 328.4921875 C179.30535156 329.05679687 178.72398437 329.62140625 178.125 330.203125 C176.19376171 332.58676924 175.36252125 334.11646391 174.57421875 337.1171875 C174.93532053 340.21938337 175.78701617 343.15455491 176.64453125 346.15234375 C177.00078079 347.46409828 177.00078079 347.46409828 177.36422729 348.80235291 C178.1280561 351.59901816 178.91366828 354.3890556 179.69921875 357.1796875 C180.20578154 359.03022873 180.71100386 360.88113744 181.21484375 362.73242188 C183.52534119 371.15867323 185.89513306 379.52209475 188.85693359 387.74609375 C190.40482762 392.86288981 190.53455343 397.19651814 188.13671875 401.9921875 C184.62423712 404.90497714 180.94229752 405.9691668 176.57421875 407.1171875 C176.57421875 409.4271875 176.57421875 411.7371875 176.57421875 414.1171875 C173.93421875 414.1171875 171.29421875 414.1171875 168.57421875 414.1171875 C178.60100599 432.30972949 194.2160077 444.93777235 214.23999023 451.02197266 C228.35023349 454.85855219 243.65483125 454.49886715 257.57421875 450.1171875 C258.98380859 449.69953125 258.98380859 449.69953125 260.421875 449.2734375 C267.5348795 446.95245713 273.4546716 443.3738588 279.57421875 439.1171875 C280.30769531 438.62089844 281.04117188 438.12460937 281.796875 437.61328125 C296.32345593 427.34111323 306.7770106 409.30986708 309.97265625 391.953125 C310.27988155 389.66969371 310.45368926 387.41820504 310.57421875 385.1171875 C310.62707031 384.14007813 310.67992187 383.16296875 310.734375 382.15625 C311.31335795 361.36321026 303.21629087 342.57980977 289.0703125 327.52734375 C274.16076822 313.13111712 254.25878902 304.57772527 233.375 304.90234375 C221.78435749 305.79144464 211.20621501 308.43910915 200.57421875 313.1171875 Z M134.57421875 351.1171875 C132.97715666 354.90246417 131.39263638 358.692719 129.81958008 362.48803711 C129.28264473 363.77853176 128.74229727 365.06761222 128.19848633 366.35522461 C127.41764145 368.20572001 126.65003543 370.06178424 125.8828125 371.91796875 C125.41673584 373.03341064 124.95065918 374.14885254 124.47045898 375.2980957 C123.25862962 378.15174054 123.25862962 378.15174054 124.57421875 381.1171875 C125.48171875 381.7153125 126.38921875 382.3134375 127.32421875 382.9296875 C131.36450806 385.649113 134.36472182 388.69819365 136.57421875 393.1171875 C139.48939167 392.04317642 141.35232051 391.33908574 143.57421875 389.1171875 C143.75045079 386.60356206 143.76798727 384.30842904 143.63671875 381.8046875 C143.59877197 381.06935791 143.5608252 380.33402832 143.52172852 379.57641602 C142.71950303 369.63893818 139.07445376 360.37706127 135.57421875 351.1171875 C135.24421875 351.1171875 134.91421875 351.1171875 134.57421875 351.1171875 Z M109.57421875 376.1171875 C108.58421875 376.7771875 107.59421875 377.4371875 106.57421875 378.1171875 C107.89421875 378.1171875 109.21421875 378.1171875 110.57421875 378.1171875 C110.24421875 377.4571875 109.91421875 376.7971875 109.57421875 376.1171875 Z M68.94921875 383.3515625 C67.30149098 385.46739474 66.52826302 387.62301408 65.57421875 390.1171875 C70.01274232 389.83991908 74.44972842 389.54292433 78.88671875 389.2421875 C80.14935547 389.16355469 81.41199219 389.08492188 82.71289062 389.00390625 C84.52563477 388.87822266 84.52563477 388.87822266 86.375 388.75 C87.49044189 388.67668457 88.60588379 388.60336914 89.75512695 388.52783203 C92.77380484 388.2939432 92.77380484 388.2939432 95.57421875 386.1171875 C94.52546877 383.49531256 93.92490562 382.32347389 91.44921875 380.8671875 C90.83046875 380.6196875 90.21171875 380.3721875 89.57421875 380.1171875 C89.57421875 379.4571875 89.57421875 378.7971875 89.57421875 378.1171875 C78.34631051 377.86635875 78.34631051 377.86635875 68.94921875 383.3515625 Z M163.86010742 392.11499023 C161.78377688 392.79743745 159.70185947 393.46039726 157.61914062 394.12304688 C156.28476298 394.5613044 154.95076558 395.00072169 153.6171875 395.44140625 C152.4108667 395.83416748 151.2045459 396.22692871 149.96166992 396.6315918 C145.4833824 398.59558312 141.90551072 401.05973627 139.19921875 405.2421875 C138.41610487 407.26212523 138.41610487 407.26212523 138.57421875 410.1171875 C148.02623061 407.95472227 157.15593619 405.04429794 166.32421875 401.9296875 C167.71470034 401.46116272 169.10532463 400.99306123 170.49609375 400.52539062 C173.85712251 399.39418176 177.21620291 398.25731383 180.57421875 397.1171875 C181.53545161 393.41797893 181.53545161 393.41797893 180.63671875 389.8046875 C180.28609375 389.2478125 179.93546875 388.6909375 179.57421875 388.1171875 C174.13971285 388.1171875 168.98866222 390.41992369 163.86010742 392.11499023 Z M109.94921875 400.6171875 C109.16546875 401.4421875 108.38171875 402.2671875 107.57421875 403.1171875 C108.23421875 405.0971875 108.89421875 407.0771875 109.57421875 409.1171875 C111.92789588 409.8050111 111.92789588 409.8050111 114.57421875 410.1171875 C115.56421875 409.4571875 116.55421875 408.7971875 117.57421875 408.1171875 C116.25421875 407.7871875 114.93421875 407.4571875 113.57421875 407.1171875 C113.57421875 405.1371875 113.57421875 403.1571875 113.57421875 401.1171875 C115.22421875 401.4471875 116.87421875 401.7771875 118.57421875 402.1171875 C117.28456699 400.74155896 115.94732582 399.40952357 114.57421875 398.1171875 C112.21143139 397.88730244 112.21143139 397.88730244 109.94921875 400.6171875 Z " fill="#111111" transform="translate(157.42578125,14.8828125)"/>
<path d="M0 0 C4.46354509 1.24979263 7.13560567 3.13178142 9.4375 7.1875 C10.31378703 10.61298566 10.50926156 13.35260236 10.125 16.875 C8.4375 19.375 8.4375 19.375 6.125 20.875 C3.6875 21 3.6875 21 1.125 19.875 C-2.81514165 15.93485835 -5.14267642 12.16821094 -6.875 6.875 C-6.75 4.0625 -6.75 4.0625 -5.875 1.875 C-2.875 -0.125 -2.875 -0.125 0 0 Z " fill="#282828" transform="translate(118.875,119.125)"/>
<path d="M0 0 C0.99 0.33 1.98 0.66 3 1 C2.84144531 1.51304688 2.68289062 2.02609375 2.51953125 2.5546875 C0.49699643 12.07428749 1.5188248 21.41380663 6 30 C6.37382812 30.74894531 6.74765625 31.49789062 7.1328125 32.26953125 C7.41898438 32.84058594 7.70515625 33.41164062 8 34 C2.74469335 33.58781909 -0.37196287 32.93037356 -4 29 C-6.99377152 23.68575497 -7.93586752 18.01193154 -7 12 C-5.46994595 7.2673328 -3.70935872 3.37987414 0 0 Z " fill="#393939" transform="translate(184,76)"/>
<path d="M0 0 C-0.3302272 7.43011202 -3.78327527 14.18668973 -8.55859375 19.84765625 C-9.03425781 20.22792969 -9.50992188 20.60820312 -10 21 C-12.1875 20.6875 -12.1875 20.6875 -14 20 C-13.47731534 17.23723823 -12.89130413 14.6739124 -12 12 C-12.66 11.67 -13.32 11.34 -14 11 C-12.04709472 9.16056628 -10.08818082 7.32840869 -8.125 5.5 C-7.29162109 4.71302734 -7.29162109 4.71302734 -6.44140625 3.91015625 C-2.2265625 0 -2.2265625 0 0 0 Z " fill="#494949" transform="translate(150,155)"/>
<path d="M0 0 C-1.57373592 3.80172161 -3.97621642 6.24341988 -6.875 9.125 C-7.73867187 9.99382813 -8.60234375 10.86265625 -9.4921875 11.7578125 C-11.64788374 13.68517954 -13.35514153 14.90515161 -16 16 C-14.33536962 11.71357676 -11.20924163 8.91382783 -8 5.75 C-7.4534375 5.19570313 -6.906875 4.64140625 -6.34375 4.0703125 C-2.2533867 0 -2.2533867 0 0 0 Z " fill="#727272" transform="translate(107,37)"/>
<path d="M0 0 C0 0.66 0 1.32 0 2 C-2.5 3.5 -2.5 3.5 -5 5 C-5 5.66 -5 6.32 -5 7 C-6.65 7.66 -8.3 8.32 -10 9 C-8.5124715 4.98367305 -4.56813239 0 0 0 Z " fill="#707070" transform="translate(119,245)"/>
<path d="M0 0 C0.66 0.99 1.32 1.98 2 3 C-0.64 4.98 -3.28 6.96 -6 9 C-6 6 -6 6 -4.6875 4.39453125 C-4.130625 3.87246094 -3.57375 3.35039062 -3 2.8125 C-2.443125 2.28269531 -1.88625 1.75289062 -1.3125 1.20703125 C-0.6628125 0.60955078 -0.6628125 0.60955078 0 0 Z " fill="#707070" transform="translate(194,164)"/>
</svg>
